<mxfile host="app.diagrams.net" modified="2025-06-22T21:54:38.078Z" agent="Mozilla/5.0 (Windows NT 10.0; Win64; x64) AppleWebKit/537.36 (KHTML, like Gecko) Chrome/137.0.0.0 Safari/537.36" etag="jpD4zPuT-apWCyxJXIOS" version="24.6.1" type="device">
  <diagram name="PÃ¡gina-1" id="vAeQNCYL2JiFjGS2vpW8">
    <mxGraphModel dx="2074" dy="744" grid="1" gridSize="10" guides="1" tooltips="1" connect="1" arrows="1" fold="1" page="1" pageScale="1" pageWidth="827" pageHeight="1169" math="0" shadow="0">
      <root>
        <mxCell id="0" />
        <mxCell id="1" parent="0" />
        <mxCell id="dKHN_H-6lxje5Ji_AV-j-5" value="Aplicativo cliente" style="swimlane;" vertex="1" parent="1">
          <mxGeometry x="40" y="50" width="190" height="640" as="geometry" />
        </mxCell>
        <mxCell id="dKHN_H-6lxje5Ji_AV-j-15" value="Frond end" style="image;aspect=fixed;html=1;points=[];align=center;fontSize=12;image=img/lib/azure2/app_services/App_Services.svg;" vertex="1" parent="dKHN_H-6lxje5Ji_AV-j-5">
          <mxGeometry x="61" y="230" width="68" height="68" as="geometry" />
        </mxCell>
        <mxCell id="dKHN_H-6lxje5Ji_AV-j-6" value="Back end java" style="swimlane;startSize=23;" vertex="1" parent="1">
          <mxGeometry x="240" y="50" width="430" height="640" as="geometry" />
        </mxCell>
        <mxCell id="dKHN_H-6lxje5Ji_AV-j-18" style="edgeStyle=orthogonalEdgeStyle;rounded=0;orthogonalLoop=1;jettySize=auto;html=1;" edge="1" parent="dKHN_H-6lxje5Ji_AV-j-6" source="dKHN_H-6lxje5Ji_AV-j-11" target="dKHN_H-6lxje5Ji_AV-j-7">
          <mxGeometry relative="1" as="geometry" />
        </mxCell>
        <mxCell id="dKHN_H-6lxje5Ji_AV-j-11" value="Api transactions" style="swimlane;startSize=23;fillColor=#dae8fc;strokeColor=#6c8ebf;" vertex="1" parent="dKHN_H-6lxje5Ji_AV-j-6">
          <mxGeometry x="40" y="40" width="330" height="190" as="geometry" />
        </mxCell>
        <mxCell id="dKHN_H-6lxje5Ji_AV-j-12" style="edgeStyle=orthogonalEdgeStyle;rounded=0;orthogonalLoop=1;jettySize=auto;html=1;" edge="1" parent="dKHN_H-6lxje5Ji_AV-j-11" source="dKHN_H-6lxje5Ji_AV-j-13">
          <mxGeometry relative="1" as="geometry">
            <mxPoint x="200" y="103.40000000000009" as="targetPoint" />
          </mxGeometry>
        </mxCell>
        <mxCell id="dKHN_H-6lxje5Ji_AV-j-13" value="Api sistemas" style="aspect=fixed;sketch=0;html=1;dashed=0;whitespace=wrap;verticalLabelPosition=bottom;verticalAlign=top;fillColor=#2875E2;strokeColor=#ffffff;points=[[0.005,0.63,0],[0.1,0.2,0],[0.9,0.2,0],[0.5,0,0],[0.995,0.63,0],[0.72,0.99,0],[0.5,1,0],[0.28,0.99,0]];shape=mxgraph.kubernetes.icon2;kubernetesLabel=1;prIcon=api" vertex="1" parent="dKHN_H-6lxje5Ji_AV-j-11">
          <mxGeometry x="20" y="63.739999999999995" width="82.5" height="79.2" as="geometry" />
        </mxCell>
        <mxCell id="dKHN_H-6lxje5Ji_AV-j-16" value="BD-SQL Server" style="image;aspect=fixed;html=1;points=[];align=center;fontSize=12;image=img/lib/azure2/databases/SQL_Server.svg;" vertex="1" parent="dKHN_H-6lxje5Ji_AV-j-11">
          <mxGeometry x="200" y="53.34" width="100" height="100" as="geometry" />
        </mxCell>
        <mxCell id="dKHN_H-6lxje5Ji_AV-j-7" value="Api Sistemas" style="swimlane;startSize=23;fillColor=#dae8fc;strokeColor=#6c8ebf;" vertex="1" parent="dKHN_H-6lxje5Ji_AV-j-6">
          <mxGeometry x="45" y="380" width="320" height="190" as="geometry" />
        </mxCell>
        <mxCell id="dKHN_H-6lxje5Ji_AV-j-10" style="edgeStyle=orthogonalEdgeStyle;rounded=0;orthogonalLoop=1;jettySize=auto;html=1;" edge="1" parent="dKHN_H-6lxje5Ji_AV-j-7" source="dKHN_H-6lxje5Ji_AV-j-8" target="dKHN_H-6lxje5Ji_AV-j-9">
          <mxGeometry relative="1" as="geometry" />
        </mxCell>
        <mxCell id="dKHN_H-6lxje5Ji_AV-j-8" value="Api sistemas" style="aspect=fixed;sketch=0;html=1;dashed=0;whitespace=wrap;verticalLabelPosition=bottom;verticalAlign=top;fillColor=#2875E2;strokeColor=#ffffff;points=[[0.005,0.63,0],[0.1,0.2,0],[0.9,0.2,0],[0.5,0,0],[0.995,0.63,0],[0.72,0.99,0],[0.5,1,0],[0.28,0.99,0]];shape=mxgraph.kubernetes.icon2;kubernetesLabel=1;prIcon=api" vertex="1" parent="dKHN_H-6lxje5Ji_AV-j-7">
          <mxGeometry x="20" y="63.739999999999995" width="82.5" height="79.2" as="geometry" />
        </mxCell>
        <mxCell id="dKHN_H-6lxje5Ji_AV-j-9" value="BD-MariaDB" style="image;aspect=fixed;html=1;points=[];align=center;fontSize=12;image=img/lib/azure2/databases/Azure_Database_MariaDB_Server.svg;" vertex="1" parent="dKHN_H-6lxje5Ji_AV-j-7">
          <mxGeometry x="200" y="49.99999999999997" width="80" height="106.67" as="geometry" />
        </mxCell>
        <mxCell id="dKHN_H-6lxje5Ji_AV-j-19" style="edgeStyle=orthogonalEdgeStyle;rounded=0;orthogonalLoop=1;jettySize=auto;html=1;entryX=0;entryY=0.5;entryDx=0;entryDy=0;" edge="1" parent="1" source="dKHN_H-6lxje5Ji_AV-j-15" target="dKHN_H-6lxje5Ji_AV-j-11">
          <mxGeometry relative="1" as="geometry" />
        </mxCell>
      </root>
    </mxGraphModel>
  </diagram>
</mxfile>
